<svg width="220" height="109" viewBox="0 0 220 109" fill="none" xmlns="http://www.w3.org/2000/svg">
<path d="M19.125 5.625H18.375C14.5833 5.625 11.7292 6.48958 9.8125 8.21875C7.5 10.3021 6.34375 13.75 6.34375 18.5625C6.34375 19.8958 6.48958 20.9583 6.78125 21.75C6.86458 22.0208 6.96875 22.2604 7.09375 22.4688C7.17708 22.6146 7.21875 22.7604 7.21875 22.9062C4.90625 22.9062 3.21875 22.4479 2.15625 21.5312C0.96875 20.5312 0.375 18.9271 0.375 16.7188C0.375 14.5104 0.78125 12.4167 1.59375 10.4375C2.42708 8.4375 3.6875 6.6875 5.375 5.1875C7.1875 3.5625 9.48958 2.30208 12.2812 1.40625C15.0938 0.510417 18.4062 0.0625 22.2188 0.0625C24.4062 0.0625 26.5 0.1875 28.5 0.4375C29.125 0.5 29.9375 0.614583 30.9375 0.78125C32.6042 1.09375 34.2083 1.30208 35.75 1.40625C36.5 1.48958 37.4479 1.53125 38.5938 1.53125C40.0104 1.53125 41.3646 1.40625 42.6562 1.15625C43.9479 0.90625 45.0729 0.583333 46.0312 0.1875C45.9271 2.97917 45.2083 5.03125 43.875 6.34375C42.5625 7.65625 40.6146 8.3125 38.0312 8.3125C36.6354 8.3125 35.2292 8.19792 33.8125 7.96875C32.3958 7.73958 30.4896 7.38542 28.0938 6.90625L19.25 48H10.0625L19.125 5.625ZM40.1562 48.25C36.9896 48.25 34.5417 47.4792 32.8125 45.9375C30.875 44.2292 29.9062 41.6354 29.9062 38.1562C29.9062 36.8438 30.0417 35.3958 30.3125 33.8125C30.5833 32.2083 31 30.5938 31.5625 28.9688C32.8542 25.0938 34.6979 22 37.0938 19.6875C39.9896 16.8542 43.4375 15.4375 47.4375 15.4375C52.9167 15.4375 55.6562 18.8438 55.6562 25.6562V25.7188C55.7812 25.7604 55.8854 25.7812 55.9688 25.7812H56.3438C57.7604 25.7812 59.4375 25.3854 61.375 24.5938C63.0833 23.8854 64.6979 23 66.2188 21.9375L66.7812 23.6875C65.5312 25 63.9167 26.1146 61.9375 27.0312C59.9792 27.9479 57.8125 28.6042 55.4375 29C55.1875 31.8958 54.625 34.5417 53.75 36.9375C52.875 39.3125 51.75 41.3542 50.375 43.0625C49.0208 44.7292 47.4688 46.0104 45.7188 46.9062C43.9688 47.8021 42.1146 48.25 40.1562 48.25ZM42.7188 42.5C43.4688 42.5 44.2292 42.1667 45 41.5C45.7917 40.8125 46.5312 39.8646 47.2188 38.6562C47.9062 37.4479 48.5 36.0312 49 34.4062C49.5 32.7812 49.875 31.0417 50.125 29.1875C49.5 29.0208 49.0521 28.7083 48.7812 28.25C48.5312 27.7917 48.4062 27.2083 48.4062 26.5C48.4062 25.625 48.5833 24.8958 48.9375 24.3125C49.2917 23.7292 49.7812 23.3021 50.4062 23.0312C50.3229 21.6771 50.1042 20.7083 49.75 20.125C49.5625 19.8333 49.3229 19.625 49.0312 19.5C48.7604 19.375 48.4062 19.3125 47.9688 19.3125C46.5312 19.3125 45.125 20.3958 43.75 22.5625C42.4792 24.5208 41.4375 26.9375 40.625 29.8125C39.8333 32.625 39.4375 35.125 39.4375 37.3125C39.4375 38.375 39.4896 39.2396 39.5938 39.9062C39.7188 40.5729 39.9167 41.0938 40.1875 41.4688C40.4375 41.8438 40.7604 42.1146 41.1562 42.2812C41.5521 42.4271 42.0729 42.5 42.7188 42.5ZM82.0312 48.375C79.3854 48.375 77.4271 47.625 76.1562 46.125C75.0521 44.8333 74.5 43.1771 74.5 41.1562C74.5 40.1979 74.6146 39.0833 74.8438 37.8125C75.0938 36.5417 75.4583 34.9062 75.9375 32.9062C76.4167 30.8646 76.7708 29.2396 77 28.0312C77.25 26.8021 77.375 25.7396 77.375 24.8438C77.375 22.6562 76.6042 21.5625 75.0625 21.5625C73.9792 21.5625 72.9792 22.1354 72.0625 23.2812C71.2917 24.2604 70.625 25.6562 70.0625 27.4688L65.7188 48H56.5L63.2812 16H72.5L71.8125 19.3125C73.0625 17.9167 74.4062 16.9375 75.8438 16.375C76.9062 15.9583 78.0521 15.75 79.2812 15.75C81.4479 15.75 83.1562 16.3125 84.4062 17.4375C85.7396 18.6667 86.4062 20.5104 86.4062 22.9688C86.4062 24.4479 86.1354 26.375 85.5938 28.75C85.4479 29.4375 85.2083 30.4688 84.875 31.8438C84.2708 34.1562 83.8333 36 83.5625 37.375C83.3958 38.25 83.3125 38.9583 83.3125 39.5C83.3125 40.3542 83.5 41.0208 83.875 41.5C84.2708 41.9583 84.9375 42.1875 85.875 42.1875C87.1458 42.1875 88.2188 41.6667 89.0938 40.625C89.7604 39.8333 90.4792 38.4688 91.25 36.5312H93.9375C92.3542 41.2188 90.3542 44.5 87.9375 46.375C86.2292 47.7083 84.2604 48.375 82.0312 48.375ZM101.219 64C100.219 64 99.2812 63.8646 98.4062 63.5938C97.5521 63.3438 96.8125 62.9583 96.1875 62.4375C95.5208 61.9167 95 61.2604 94.625 60.4688C94.25 59.6979 94.0625 58.8021 94.0625 57.7812C94.0625 55.3646 95.1979 53.2917 97.4688 51.5625C99.1771 50.2917 101.521 49.1875 104.5 48.25L105.281 44.8125C104.031 46.1875 102.677 47.1562 101.219 47.7188C100.094 48.1562 98.8854 48.375 97.5938 48.375C95.5521 48.375 93.9375 47.7708 92.75 46.5625C91.4167 45.2292 90.75 43.2812 90.75 40.7188C90.75 39.5104 90.9167 38.1146 91.25 36.5312L95.5938 16H104.812L100.219 37.75C100.094 38.2708 100.031 38.8125 100.031 39.375C100.031 40.1875 100.167 40.8333 100.438 41.3125C100.75 41.8958 101.25 42.1875 101.938 42.1875C103.062 42.1875 104.073 41.6875 104.969 40.6875C105.74 39.8333 106.396 38.5833 106.938 36.9375L111.406 16H120.625L114.281 45.6875C116.302 45.0208 117.917 44.0208 119.125 42.6875C120.438 41.25 121.51 39.1979 122.344 36.5312H125.031C123.885 40.3229 122.177 43.25 119.906 45.3125C118.24 46.8125 116.177 47.875 113.719 48.5L112.75 53.125C111.938 57.2083 110.312 60.1667 107.875 62C106.104 63.3333 103.885 64 101.219 64ZM99.75 59C100.396 59 101.083 58.5312 101.812 57.5938C102.521 56.6771 103.073 55.25 103.469 53.3125L103.844 51.4688C101.906 52.1979 100.458 52.9375 99.5 53.6875C98.2292 54.6458 97.5938 55.7188 97.5938 56.9062C97.5938 57.4688 97.7708 57.9375 98.125 58.3125C98.5208 58.7708 99.0625 59 99.75 59ZM14.7188 67.2812L24.1875 66.0312L19.6562 87.4062C21.6771 87.2604 23.6042 86.3229 25.4375 84.5938C27.1042 83.0312 28.4271 81.0521 29.4062 78.6562C30.3646 76.3646 30.8438 74.0312 30.8438 71.6562C30.8438 69.1562 30.2292 67.1042 29 65.5C28.3333 64.6875 27.4896 64.0625 26.4688 63.625C25.4479 63.1667 24.2604 62.9375 22.9062 62.9375C20.3229 62.9375 18 63.2917 15.9375 64C13.8958 64.7083 12.1562 65.7292 10.7188 67.0625C9.28125 68.3958 8.1875 70.0312 7.4375 71.9688C6.70833 73.9062 6.34375 76.0833 6.34375 78.5C6.34375 79.8333 6.48958 80.8958 6.78125 81.6875C6.86458 81.9583 6.96875 82.1979 7.09375 82.4062C7.17708 82.5521 7.21875 82.6979 7.21875 82.8438C4.90625 82.8438 3.21875 82.3854 2.15625 81.4688C0.96875 80.4688 0.375 78.8542 0.375 76.625C0.375 75.2292 0.677083 73.8542 1.28125 72.5C1.88542 71.125 2.73958 69.8021 3.84375 68.5312C4.88542 67.3229 6.125 66.1979 7.5625 65.1562C9.02083 64.0938 10.5938 63.1771 12.2812 62.4062C15.8229 60.8021 19.3438 60 22.8438 60C27.7812 60 31.6146 61.2812 34.3438 63.8438C35.5521 64.9896 36.4479 66.3125 37.0312 67.8125C37.6354 69.3125 37.9375 70.9062 37.9375 72.5938C37.9375 74.6562 37.5104 76.7083 36.6562 78.75C35.8229 80.7917 34.6146 82.6146 33.0312 84.2188C31.3646 85.9271 29.375 87.2812 27.0625 88.2812C24.7708 89.2604 22.2396 89.75 19.4688 89.75H19.125L15.2188 108H6.03125L14.7188 67.2812ZM47.375 72.5312C46.6875 72.5312 46.0312 72.4062 45.4062 72.1562C44.7812 71.8854 44.2396 71.5208 43.7812 71.0625C43.3229 70.625 42.9583 70.0938 42.6875 69.4688C42.4375 68.8438 42.3125 68.1875 42.3125 67.5C42.3125 66.8125 42.4375 66.1562 42.6875 65.5312C42.9583 64.9062 43.3229 64.3542 43.7812 63.875C44.2396 63.3958 44.7812 63.0312 45.4062 62.7812C46.0312 62.5104 46.6875 62.375 47.375 62.375C48.0625 62.375 48.7188 62.5104 49.3438 62.7812C49.9688 63.0312 50.5208 63.3958 51 63.875C51.4792 64.3542 51.8438 64.9062 52.0938 65.5312C52.3646 66.1562 52.5 66.8125 52.5 67.5C52.5 68.1875 52.3646 68.8438 52.0938 69.4688C51.8438 70.0938 51.4792 70.625 51 71.0625C50.5208 71.5208 49.9688 71.8854 49.3438 72.1562C48.7188 72.4062 48.0625 72.5312 47.375 72.5312ZM43.0312 108.375C40.9896 108.375 39.375 107.771 38.1875 106.562C36.8542 105.229 36.1875 103.281 36.1875 100.719C36.1875 99.5104 36.3542 98.1146 36.6875 96.5312L41.0312 76H50.25L45.6562 97.75C45.4896 98.2917 45.4062 98.9792 45.4062 99.8125C45.4062 100.688 45.6042 101.302 46 101.656C46.4167 102.01 47.0833 102.188 48 102.188C48.625 102.188 49.2292 102.052 49.8125 101.781C50.4167 101.49 50.9688 101.094 51.4688 100.594C52.4896 99.5729 53.2604 98.2188 53.7812 96.5312H56.4688C55.3229 99.7604 53.8854 102.333 52.1562 104.25C50.6979 105.812 49.0521 106.938 47.2188 107.625C45.8854 108.125 44.4896 108.375 43.0312 108.375ZM70.125 79.4688H66.5625C65.4167 79.4688 64.5833 79.5208 64.0625 79.625C63.375 79.75 63.0312 80.0312 63.0312 80.4688C63.0312 80.5729 63.0729 80.6354 63.1562 80.6562C63.3229 80.6979 63.4792 80.8438 63.625 81.0938C63.6875 81.2396 63.7188 81.5 63.7188 81.875C63.7188 83 63.3646 83.8646 62.6562 84.4688C61.9896 85.0104 61.1979 85.2812 60.2812 85.2812C59.5312 85.2812 58.8646 85.0417 58.2812 84.5625C57.6562 84.0417 57.3438 83.3438 57.3438 82.4688C57.3438 81.8021 57.5208 81.0938 57.875 80.3438C58.2292 79.5729 58.7188 78.875 59.3438 78.25C60.0104 77.5625 60.8021 77.0208 61.7188 76.625C62.6562 76.2083 63.6667 76 64.75 76H81.2188L65.5312 103.062C65.7396 103.083 66.4688 103.156 67.7188 103.281C68.5938 103.406 69.4792 103.469 70.375 103.469C71.25 103.469 71.9479 103.375 72.4688 103.188C72.9896 103 73.3021 102.667 73.4062 102.188C72.9896 102.146 72.6771 102.01 72.4688 101.781C72.2812 101.531 72.1875 101.219 72.1875 100.844C72.1875 100.531 72.2604 100.219 72.4062 99.9062C72.5729 99.5729 72.8021 99.2708 73.0938 99C73.8021 98.3958 74.6875 98.0938 75.75 98.0938C76.7083 98.0938 77.4167 98.375 77.875 98.9375C78.3542 99.5 78.5938 100.24 78.5938 101.156C78.5938 101.906 78.4167 102.688 78.0625 103.5C77.7083 104.292 77.1979 105.021 76.5312 105.688C75.8229 106.396 74.9792 106.958 74 107.375C73.0417 107.792 71.9688 108 70.7812 108H53.8125L70.125 79.4688ZM97.5625 79.4688H94C92.8542 79.4688 92.0208 79.5208 91.5 79.625C90.8125 79.75 90.4688 80.0312 90.4688 80.4688C90.4688 80.5729 90.5104 80.6354 90.5938 80.6562C90.7604 80.6979 90.9167 80.8438 91.0625 81.0938C91.125 81.2396 91.1562 81.5 91.1562 81.875C91.1562 83 90.8021 83.8646 90.0938 84.4688C89.4271 85.0104 88.6354 85.2812 87.7188 85.2812C86.9688 85.2812 86.3021 85.0417 85.7188 84.5625C85.0938 84.0417 84.7812 83.3438 84.7812 82.4688C84.7812 81.8021 84.9583 81.0938 85.3125 80.3438C85.6667 79.5729 86.1562 78.875 86.7812 78.25C87.4479 77.5625 88.2396 77.0208 89.1562 76.625C90.0938 76.2083 91.1042 76 92.1875 76H108.656L92.9688 103.062C93.1771 103.083 93.9062 103.156 95.1562 103.281C96.0312 103.406 96.9167 103.469 97.8125 103.469C98.6875 103.469 99.3854 103.375 99.9062 103.188C100.427 103 100.74 102.667 100.844 102.188C100.427 102.146 100.115 102.01 99.9062 101.781C99.7188 101.531 99.625 101.219 99.625 100.844C99.625 100.531 99.6979 100.219 99.8438 99.9062C100.01 99.5729 100.24 99.2708 100.531 99C101.24 98.3958 102.125 98.0938 103.188 98.0938C104.146 98.0938 104.854 98.375 105.312 98.9375C105.792 99.5 106.031 100.24 106.031 101.156C106.031 101.906 105.854 102.688 105.5 103.5C105.146 104.292 104.635 105.021 103.969 105.688C103.26 106.396 102.417 106.958 101.438 107.375C100.479 107.792 99.4062 108 98.2188 108H81.25L97.5625 79.4688ZM116.375 108.375C113.938 108.375 111.969 107.615 110.469 106.094C108.719 104.302 107.844 101.635 107.844 98.0938C107.844 96.5938 108 95.0104 108.312 93.3438C108.604 91.6771 109.042 90.0312 109.625 88.4062C110.958 84.7396 112.781 81.7812 115.094 79.5312C117.76 76.9688 120.833 75.6875 124.312 75.6875C126.042 75.6875 127.333 75.9896 128.188 76.5938C129.062 77.1771 129.5 77.9583 129.5 78.9375V79.4062L130.188 76H139.406L134.812 97.75C134.625 98.375 134.531 99.0625 134.531 99.8125C134.531 101.646 135.406 102.562 137.156 102.562C138.323 102.562 139.385 101.969 140.344 100.781C141.156 99.7812 141.823 98.3646 142.344 96.5312H145.031C143.885 99.7812 142.5 102.354 140.875 104.25C139.5 105.812 137.948 106.938 136.219 107.625C134.948 108.125 133.604 108.375 132.188 108.375C130.375 108.375 128.927 107.885 127.844 106.906C126.781 105.906 126.135 104.438 125.906 102.5C124.698 104.208 123.427 105.542 122.094 106.5C120.385 107.75 118.479 108.375 116.375 108.375ZM120.531 102.188C121.01 102.188 121.51 102.062 122.031 101.812C122.573 101.562 123.094 101.208 123.594 100.75C124.719 99.6667 125.469 98.2604 125.844 96.5312L128.906 82.0938C128.906 81.8854 128.854 81.6458 128.75 81.375C128.667 81.0833 128.542 80.8125 128.375 80.5625C127.875 79.9583 127.177 79.6562 126.281 79.6562C125.427 79.6562 124.594 79.9375 123.781 80.5C122.99 81.0625 122.24 81.8438 121.531 82.8438C120.281 84.6562 119.25 87.0208 118.438 89.9375C118.062 91.2292 117.781 92.5104 117.594 93.7812C117.406 95.0312 117.312 96.1667 117.312 97.1875C117.312 99.3125 117.708 100.75 118.5 101.5C118.771 101.792 119.073 101.979 119.406 102.062C119.74 102.146 120.115 102.188 120.531 102.188ZM146.719 76H155.938L155.125 79.9688C156.583 78.6771 157.771 77.7604 158.688 77.2188C160.104 76.4062 161.49 76 162.844 76C164.219 76 165.323 76.4896 166.156 77.4688C166.531 77.9062 166.812 78.4167 167 79C167.188 79.5625 167.281 80.1667 167.281 80.8125C167.281 81.3958 167.188 81.9583 167 82.5C166.812 83.0417 166.531 83.5312 166.156 83.9688C165.74 84.4271 165.229 84.7917 164.625 85.0625C164.042 85.3333 163.385 85.4688 162.656 85.4688C162.094 85.4688 161.646 85.375 161.312 85.1875C160.979 85 160.719 84.7292 160.531 84.375C160.365 84.0208 160.25 83.6771 160.188 83.3438C160 82.4479 159.812 81.8542 159.625 81.5625C159.479 81.3542 159.25 81.25 158.938 81.25C158.042 81.25 157.281 81.4375 156.656 81.8125C156.031 82.1875 155.24 82.8125 154.281 83.6875L149.156 108H139.938L146.719 76ZM177.125 72.5312C176.438 72.5312 175.781 72.4062 175.156 72.1562C174.531 71.8854 173.99 71.5208 173.531 71.0625C173.073 70.625 172.708 70.0938 172.438 69.4688C172.188 68.8438 172.062 68.1875 172.062 67.5C172.062 66.8125 172.188 66.1562 172.438 65.5312C172.708 64.9062 173.073 64.3542 173.531 63.875C173.99 63.3958 174.531 63.0312 175.156 62.7812C175.781 62.5104 176.438 62.375 177.125 62.375C177.812 62.375 178.469 62.5104 179.094 62.7812C179.719 63.0312 180.271 63.3958 180.75 63.875C181.229 64.3542 181.594 64.9062 181.844 65.5312C182.115 66.1562 182.25 66.8125 182.25 67.5C182.25 68.1875 182.115 68.8438 181.844 69.4688C181.594 70.0938 181.229 70.625 180.75 71.0625C180.271 71.5208 179.719 71.8854 179.094 72.1562C178.469 72.4062 177.812 72.5312 177.125 72.5312ZM172.781 108.375C170.74 108.375 169.125 107.771 167.938 106.562C166.604 105.229 165.938 103.281 165.938 100.719C165.938 99.5104 166.104 98.1146 166.438 96.5312L170.781 76H180L175.406 97.75C175.24 98.2917 175.156 98.9792 175.156 99.8125C175.156 100.688 175.354 101.302 175.75 101.656C176.167 102.01 176.833 102.188 177.75 102.188C178.375 102.188 178.979 102.052 179.562 101.781C180.167 101.49 180.719 101.094 181.219 100.594C182.24 99.5729 183.01 98.2188 183.531 96.5312H186.219C185.073 99.7604 183.635 102.333 181.906 104.25C180.448 105.812 178.802 106.938 176.969 107.625C175.635 108.125 174.24 108.375 172.781 108.375ZM191.25 108.375C188.812 108.375 186.844 107.615 185.344 106.094C183.594 104.302 182.719 101.635 182.719 98.0938C182.719 96.5938 182.875 95.0104 183.188 93.3438C183.479 91.6771 183.917 90.0312 184.5 88.4062C185.833 84.7396 187.656 81.7812 189.969 79.5312C192.635 76.9688 195.708 75.6875 199.188 75.6875C200.917 75.6875 202.208 75.9896 203.062 76.5938C203.938 77.1771 204.375 77.9583 204.375 78.9375V79.4062L205.062 76H214.281L209.688 97.75C209.5 98.375 209.406 99.0625 209.406 99.8125C209.406 101.646 210.281 102.562 212.031 102.562C213.198 102.562 214.26 101.969 215.219 100.781C216.031 99.7812 216.698 98.3646 217.219 96.5312H219.906C218.76 99.7812 217.375 102.354 215.75 104.25C214.375 105.812 212.823 106.938 211.094 107.625C209.823 108.125 208.479 108.375 207.062 108.375C205.25 108.375 203.802 107.885 202.719 106.906C201.656 105.906 201.01 104.438 200.781 102.5C199.573 104.208 198.302 105.542 196.969 106.5C195.26 107.75 193.354 108.375 191.25 108.375ZM195.406 102.188C195.885 102.188 196.385 102.062 196.906 101.812C197.448 101.562 197.969 101.208 198.469 100.75C199.594 99.6667 200.344 98.2604 200.719 96.5312L203.781 82.0938C203.781 81.8854 203.729 81.6458 203.625 81.375C203.542 81.0833 203.417 80.8125 203.25 80.5625C202.75 79.9583 202.052 79.6562 201.156 79.6562C200.302 79.6562 199.469 79.9375 198.656 80.5C197.865 81.0625 197.115 81.8438 196.406 82.8438C195.156 84.6562 194.125 87.0208 193.312 89.9375C192.938 91.2292 192.656 92.5104 192.469 93.7812C192.281 95.0312 192.188 96.1667 192.188 97.1875C192.188 99.3125 192.583 100.75 193.375 101.5C193.646 101.792 193.948 101.979 194.281 102.062C194.615 102.146 194.99 102.188 195.406 102.188Z" fill="white"/>
</svg>
